<svg width="64" height="64" viewBox="0 0 64 64" fill="none" xmlns="http://www.w3.org/2000/svg">
<circle cx="32" cy="32" r="32" fill="#F1323E"/>
<path d="M31.5284 10.4795C31.6854 10.0346 32.3145 10.0346 32.4715 10.4795L37.3131 24.2044C37.3821 24.4 37.5648 24.5327 37.7722 24.5379L52.3215 24.9013C52.7931 24.9131 52.9875 25.5115 52.6129 25.7982L41.0559 34.6441C40.8911 34.7702 40.8214 34.9849 40.8805 35.1837L45.0309 49.1333C45.1654 49.5854 44.6564 49.9552 44.2679 49.6876L32.2837 41.4297C32.1128 41.312 31.8871 41.312 31.7163 41.4297L19.732 49.6876C19.3435 49.9552 18.8345 49.5854 18.9691 49.1333L23.1194 35.1837C23.1785 34.9849 23.1088 34.7702 22.9441 34.6441L11.3871 25.7982C11.0124 25.5115 11.2069 24.9131 11.6785 24.9013L26.2278 24.5379C26.4351 24.5327 26.6178 24.4 26.6868 24.2044L31.5284 10.4795Z" fill="#FEFEFE"/>
</svg>
